<?xml version="1.0" encoding="utf-8"?>
<!-- Generator: Adobe Illustrator 16.0.0, SVG Export Plug-In . SVG Version: 6.00 Build 0)  -->
<!DOCTYPE svg PUBLIC "-//W3C//DTD SVG 1.1//EN" "http://www.w3.org/Graphics/SVG/1.1/DTD/svg11.dtd">
<svg version="1.1" id="Layer_1" xmlns="http://www.w3.org/2000/svg" xmlns:xlink="http://www.w3.org/1999/xlink" x="0px" y="0px"
	 width="512px" height="512px" viewBox="0 0 512 512" enable-background="new 0 0 512 512" xml:space="preserve">
<rect x="14" y="434" width="150" height="45"/>
<rect x="14" y="334" width="150" height="45"/>
<rect x="14" y="234" width="270" height="45"/>
<rect x="14" y="134" width="270" height="45"/>
<rect x="14" y="34" width="270" height="45"/>
<path d="M253.803,471.326c-20.471-5.189-39.48-20.199-44.87-41.26c-5.641-20.109,1.74-41.701,14.399-57.58
	c23.49-29.4,63.79-44.471,100.78-37.52c0.3-98.411-0.02-196.831,0.16-295.241c8.92,13.15,18.55,26.01,30.59,36.51
	c25.59,23.2,57.43,37.94,83.74,60.2c22.68,19.311,42.37,43.26,52.42,71.62c7.37,20.28,8.87,42.55,4.58,63.68
	c-5.65,27.109-22.28,42.379-40.2,63.301c6.1-25.25,13.06-42.271,5.26-67.611c-5.189-17.57-16.58-32.82-30.76-44.209
	c-16.21-13.09-35.2-22.13-54.27-30.23c-0.25,65.02-0.03,130.051-0.11,195.081c1,22.449-10.45,43.93-26.85,58.68
	C323.553,469.467,286.843,479.816,253.803,471.326"/>
</svg>
